<svg width="20" height="20" viewBox="0 0 20 20" fill="none" xmlns="http://www.w3.org/2000/svg">
<path d="M17.916 12.4998C17.9142 11.9996 17.7623 11.5114 17.48 11.0984C17.1978 10.6854 16.7981 10.3666 16.3327 10.1832L17.891 4.34984C17.9236 4.22561 17.927 4.09554 17.9009 3.96977C17.8749 3.84401 17.8202 3.72596 17.741 3.62485C17.6601 3.5301 17.5589 3.45471 17.445 3.40424C17.331 3.35376 17.2072 3.32948 17.0827 3.33318H5.66602L5.39102 2.28318C5.3432 2.1056 5.238 1.94883 5.09179 1.83729C4.94558 1.72575 4.76658 1.6657 4.58268 1.66651H2.91602V3.33318H3.94102L6.00768 11.0498C6.05652 11.2316 6.16546 11.3916 6.31678 11.5035C6.4681 11.6155 6.65288 11.673 6.84102 11.6665H15.416C15.637 11.6665 15.849 11.7543 16.0053 11.9106C16.1616 12.0669 16.2493 12.2788 16.2493 12.4998C16.2493 12.7209 16.1616 12.9328 16.0053 13.0891C15.849 13.2454 15.637 13.3332 15.416 13.3332H4.58268C4.36167 13.3332 4.14971 13.421 3.99343 13.5773C3.83715 13.7335 3.74935 13.9455 3.74935 14.1665C3.74935 14.3875 3.83715 14.5995 3.99343 14.7558C4.14971 14.912 4.36167 14.9998 4.58268 14.9998H5.56602C5.42896 15.3775 5.38492 15.7825 5.43762 16.1808C5.49033 16.579 5.63822 16.9587 5.86878 17.2876C6.09934 17.6166 6.40578 17.8852 6.76214 18.0706C7.11851 18.256 7.5143 18.3528 7.91602 18.3528C8.31773 18.3528 8.71352 18.256 9.06989 18.0706C9.42625 17.8852 9.73269 17.6166 9.96325 17.2876C10.1938 16.9587 10.3417 16.579 10.3944 16.1808C10.4471 15.7825 10.4031 15.3775 10.266 14.9998H12.2327C12.1079 15.3437 12.0601 15.7107 12.0927 16.075C12.1252 16.4394 12.2373 16.7921 12.4211 17.1084C12.6048 17.4247 12.8557 17.6968 13.156 17.9055C13.4564 18.1142 13.7989 18.2545 14.1594 18.3165C14.5199 18.3784 14.8896 18.3605 15.2424 18.264C15.5952 18.1675 15.9225 17.9947 16.2013 17.7579C16.4801 17.5211 16.7035 17.226 16.8558 16.8934C17.0081 16.5609 17.0855 16.1989 17.0827 15.8332C17.0811 15.4026 16.9662 14.9801 16.7493 14.6082C17.1057 14.3835 17.3995 14.0724 17.6035 13.7038C17.8074 13.3353 17.9149 12.9211 17.916 12.4998ZM14.6577 9.99984H7.49935L6.11602 4.99985H15.9993L14.6577 9.99984ZM7.91602 16.6665C7.7512 16.6665 7.59008 16.6176 7.45304 16.5261C7.316 16.4345 7.20919 16.3044 7.14612 16.1521C7.08304 15.9998 7.06654 15.8323 7.09869 15.6706C7.13085 15.509 7.21022 15.3605 7.32676 15.2439C7.4433 15.1274 7.59179 15.048 7.75344 15.0159C7.91509 14.9837 8.08265 15.0002 8.23492 15.0633C8.38719 15.1264 8.51734 15.2332 8.60891 15.3702C8.70047 15.5072 8.74935 15.6684 8.74935 15.8332C8.74935 16.0542 8.66155 16.2662 8.50527 16.4224C8.34899 16.5787 8.13703 16.6665 7.91602 16.6665ZM14.5827 16.6665C14.4179 16.6665 14.2567 16.6176 14.1197 16.5261C13.9827 16.4345 13.8759 16.3044 13.8128 16.1521C13.7497 15.9998 13.7332 15.8323 13.7654 15.6706C13.7975 15.509 13.8769 15.3605 13.9934 15.2439C14.11 15.1274 14.2585 15.048 14.4201 15.0159C14.5818 14.9837 14.7493 15.0002 14.9016 15.0633C15.0539 15.1264 15.184 15.2332 15.2756 15.3702C15.3671 15.5072 15.416 15.6684 15.416 15.8332C15.416 16.0542 15.3282 16.2662 15.1719 16.4224C15.0157 16.5787 14.8037 16.6665 14.5827 16.6665Z" fill="#1F1D14"/>
</svg>
