<svg width="224" height="198" viewBox="0 0 224 198" fill="none" xmlns="http://www.w3.org/2000/svg">
<rect width="434" height="58" transform="translate(-142.408 153.768) rotate(-41)" fill="#FF1C1C"/>
<path d="M27.6809 55.5986L24.6827 53.4666L21.0239 56.6472L22.736 59.8971L19.6568 62.5738L12.5309 46.7307L16.1353 43.5974L30.8325 52.8589L27.6809 55.5986ZM19.6574 54.0509L22.3019 51.752L16.1615 47.3589L19.6574 54.0509ZM31.9782 34.977L33.2977 41.6529L40.5564 44.4061L37.5315 47.0356L31.8405 44.7323L30.971 45.488L34.561 49.6178L31.6991 52.1056L23.3383 42.4876L26.2002 39.9998L29.4595 43.7492L30.4014 42.9304L29.2251 37.3703L31.9782 34.977ZM48.0011 34.2457L49.4502 32.986L53.8904 38.0939L51.8979 39.8259L48.9582 37.1026L41.6224 43.4794L33.2616 33.8614L36.1234 31.3736L42.642 38.8724L45.1235 36.7153L38.6049 29.2165L41.4668 26.7288L48.0011 34.2457ZM60.8358 26.7775L58.1188 29.1393L55.143 25.7159C54.5551 25.0397 54.035 24.3682 53.5826 23.7015C53.1302 23.0347 52.7799 22.4488 52.5317 21.9438L55.2932 31.5956L52.377 34.1306L44.0162 24.5126L46.7513 22.135L49.7744 25.6127C50.3307 26.2527 50.8343 26.9174 51.2851 27.6067C51.748 28.2855 52.1043 28.8662 52.3541 29.3486L49.5407 19.7102L52.475 17.1595L60.8358 26.7775ZM62.5607 8.3921L70.9215 18.0101L68.0596 20.4979L65.1467 17.147L63.915 18.2177L65.0891 23.0801L62.028 25.7411L60.7423 19.7991C60.0509 19.9549 59.394 19.943 58.7714 19.7633C58.1504 19.5611 57.5985 19.1823 57.1157 18.6268C56.2234 17.6004 55.9267 16.4909 56.2256 15.2983C56.5366 14.0952 57.4226 12.8586 58.8837 11.5884L62.5607 8.3921ZM63.6667 15.4444L61.2891 12.7093L60.4559 13.4336C59.9367 13.885 59.6439 14.3408 59.5777 14.8012C59.5236 15.2511 59.6802 15.6873 60.0476 16.1099C60.436 16.5567 60.8612 16.8019 61.3231 16.8456C61.7866 16.8667 62.272 16.6568 62.7791 16.2159L63.6667 15.4444Z" fill="white"/>
</svg>
