<svg width="16" height="17" viewBox="0 0 16 17" fill="none" xmlns="http://www.w3.org/2000/svg">
<path fill-rule="evenodd" clip-rule="evenodd" d="M4.00065 3.1665C2.52789 3.1665 1.33398 4.36041 1.33398 5.83317L1.33398 11.1665C1.33398 12.6393 2.52789 13.8332 4.00065 13.8332L12.0007 13.8332C13.4734 13.8332 14.6673 12.6393 14.6673 11.1665L14.6673 5.83317C14.6673 4.36041 13.4734 3.1665 12.0007 3.1665L4.00065 3.1665ZM9.33398 4.49984L6.66732 4.49984L6.66732 12.4998L9.33398 12.4998L9.33398 4.49984ZM10.6673 4.49984L10.6673 12.4998H12.0007C12.737 12.4998 13.334 11.9029 13.334 11.1665L13.334 5.83317C13.334 5.09679 12.737 4.49984 12.0007 4.49984H10.6673ZM4.00065 12.4998H5.33398L5.33398 4.49984L4.00065 4.49984C3.26427 4.49984 2.66732 5.09679 2.66732 5.83317L2.66732 11.1665C2.66732 11.9029 3.26427 12.4998 4.00065 12.4998Z" fill="#1F1C14"/>
</svg>
