<svg width="50" height="50" viewBox="0 0 50 50" fill="none" xmlns="http://www.w3.org/2000/svg">
<circle cx="25" cy="25" r="25" fill="white"/>
<path d="M21.4593 24.29L27.1193 18.64C27.2122 18.5463 27.3228 18.4719 27.4447 18.4211C27.5666 18.3704 27.6973 18.3442 27.8293 18.3442C27.9613 18.3442 28.092 18.3704 28.2139 18.4211C28.3357 18.4719 28.4463 18.5463 28.5393 18.64C28.7255 18.8274 28.8301 19.0809 28.8301 19.345C28.8301 19.6092 28.7255 19.8627 28.5393 20.05L23.5893 25.05L28.5393 30C28.7255 30.1874 28.8301 30.4409 28.8301 30.705C28.8301 30.9692 28.7255 31.2227 28.5393 31.41C28.4467 31.5045 28.3362 31.5797 28.2144 31.6312C28.0925 31.6827 27.9616 31.7095 27.8293 31.71C27.697 31.7095 27.5661 31.6827 27.4442 31.6312C27.3223 31.5797 27.2119 31.5045 27.1193 31.41L21.4593 25.76C21.3578 25.6664 21.2768 25.5527 21.2214 25.4262C21.166 25.2997 21.1374 25.1631 21.1374 25.025C21.1374 24.8869 21.166 24.7503 21.2214 24.6238C21.2768 24.4973 21.3578 24.3837 21.4593 24.29Z" fill="black"/>
</svg>
