<svg width="227" height="200" viewBox="0 0 227 200" fill="none" xmlns="http://www.w3.org/2000/svg">
<rect width="434" height="58" transform="translate(-139.408 155.768) rotate(-41)" fill="#917BFF"/>
<path d="M30.742 55.5579L26.845 51.0749L23.7054 53.8041L27.6024 58.2871L25.1269 60.439L16.0339 49.9787L18.5094 47.8268L22.0259 51.8721L25.1655 49.1428L21.649 45.0976L24.1244 42.9457L33.2174 53.406L30.742 55.5579ZM31.4159 40.4499C32.6435 39.3827 33.9326 38.9247 35.2829 39.0758C36.6246 39.2169 37.8815 39.9617 39.0537 41.3101C39.7972 42.1654 40.2879 43.055 40.5257 43.979C40.7648 44.8841 40.7406 45.7708 40.4531 46.6391C40.1756 47.4987 39.6344 48.2783 38.8293 48.9781C37.6117 50.0366 36.3271 50.4996 34.9754 50.3673C33.625 50.2162 32.3637 49.4664 31.1915 48.118C30.448 47.2627 29.9567 46.3824 29.7175 45.4773C29.4797 44.5534 29.4995 43.6616 29.777 42.8021C30.0646 41.9338 30.6108 41.1497 31.4159 40.4499ZM32.9379 42.2008C32.4549 42.6207 32.272 43.1419 32.3891 43.7644C32.4975 44.3769 32.9235 45.1108 33.667 45.9661C34.428 46.8416 35.0992 47.38 35.6806 47.5813C36.272 47.7739 36.8142 47.6558 37.3073 47.2272C37.7903 46.8073 37.9776 46.2912 37.8692 45.6787C37.7521 45.0562 37.3217 44.3173 36.5782 43.4619C35.8172 42.5865 35.141 42.0525 34.5496 41.8599C33.9682 41.6586 33.431 41.7722 32.9379 42.2008ZM45.0538 35.3787C46.5522 34.3588 47.8044 34.4275 48.8104 35.5847C49.5189 36.3998 49.7261 37.2885 49.432 38.2508C49.148 39.2044 48.4525 40.1624 47.3456 41.1246L43.9494 44.0768L37.0476 36.1373C38.0527 34.875 39.013 33.8458 39.9288 33.0498C41.0155 32.1051 42.0226 31.5564 42.9501 31.4039C43.8788 31.2326 44.6537 31.5041 45.2748 32.2186C45.6684 32.6714 45.8462 33.1706 45.808 33.7161C45.7712 34.2428 45.5198 34.797 45.0538 35.3787ZM41.2087 34.6137C40.8968 34.8848 40.659 35.1092 40.4953 35.2868L42.0961 37.1283L42.9414 36.3935C43.2735 36.1048 43.4645 35.8063 43.5144 35.4979C43.5556 35.1794 43.4362 34.8592 43.1563 34.5372C42.6227 33.9234 41.9735 33.9488 41.2087 34.6137ZM45.9055 39.6204C46.7105 38.9206 46.8025 38.2135 46.1814 37.499C45.8928 37.1669 45.5829 37.0035 45.2517 37.0087C44.9206 37.0139 44.5487 37.1958 44.1361 37.5545L43.1852 38.3811L44.9697 40.4339L45.9055 39.6204ZM50.3566 28.808C51.6547 27.6796 52.8062 27.0938 53.811 27.0507C54.8171 26.9887 55.7182 27.4156 56.5142 28.3313C57.284 29.2168 57.5625 30.1673 57.3498 31.1826C57.137 32.1978 56.5225 33.1472 55.5061 34.0307L52.3514 36.7731L45.3841 28.758L47.769 26.6849L49.934 29.1754L50.3566 28.808ZM52.6142 22.473L54.9991 20.3998L61.9664 28.4149L59.5815 30.488L52.6142 22.473ZM53.8849 32.684C54.7 31.9755 54.7533 31.2136 54.0447 30.3986C53.6861 29.986 53.318 29.7759 52.9405 29.7684C52.5643 29.7421 52.1296 29.9433 51.6365 30.3719L51.2592 30.7L53.3717 33.1301L53.8849 32.684ZM70.8832 20.6636L68.6191 22.6318L66.1392 19.779C65.6493 19.2155 65.2159 18.6559 64.8389 18.1003C64.4619 17.5447 64.17 17.0564 63.9631 16.6356L66.2644 24.6787L63.8342 26.7912L56.8669 18.7762L59.1461 16.7949L61.6654 19.693C62.129 20.2263 62.5486 20.7802 62.9243 21.3546C63.31 21.9203 63.607 22.4042 63.8152 22.8062L61.4706 14.7742L63.9159 12.6486L70.8832 20.6636ZM59.0586 14.1945C58.2837 14.868 57.4862 15.1903 56.666 15.1613C55.8558 15.1235 55.1144 14.7787 54.4417 14.1268L55.545 12.7437C55.9154 12.987 56.2625 13.0916 56.5863 13.0576C56.9201 13.0147 57.263 12.8403 57.6152 12.5341C57.9674 12.2279 58.1829 11.9169 58.2617 11.6011C58.3506 11.2765 58.3054 10.9095 58.1261 10.5L59.6492 9.59999C60.2011 10.3569 60.4344 11.1434 60.349 11.9597C60.2635 12.776 59.8334 13.5209 59.0586 14.1945Z" fill="white"/>
</svg>
