<svg width="14" height="14" viewBox="0 0 14 14" fill="none" xmlns="http://www.w3.org/2000/svg">
<g clip-path="url(#clip0_2_815)">
<path d="M3.50033 10.5H2.33366C2.02424 10.5 1.72749 10.3771 1.5087 10.1583C1.28991 9.9395 1.16699 9.64275 1.16699 9.33333V6.41667C1.16699 6.10725 1.28991 5.8105 1.5087 5.59171C1.72749 5.37292 2.02424 5.25 2.33366 5.25H11.667C11.9764 5.25 12.2732 5.37292 12.4919 5.59171C12.7107 5.8105 12.8337 6.10725 12.8337 6.41667V9.33333C12.8337 9.64275 12.7107 9.9395 12.4919 10.1583C12.2732 10.3771 11.9764 10.5 11.667 10.5H10.5003" stroke="black" stroke-linecap="round" stroke-linejoin="round"/>
<path d="M10.5 8.1665H3.5V12.8332H10.5V8.1665Z" stroke="black" stroke-linecap="round" stroke-linejoin="round"/>
<path d="M3.5 5.24984V1.1665H10.5V5.24984" stroke="black" stroke-linecap="round" stroke-linejoin="round"/>
</g>
<defs>
<clipPath id="clip0_2_815">
<rect width="14" height="14" fill="white"/>
</clipPath>
</defs>
</svg>
