<svg width="50" height="50" viewBox="0 0 50 50" fill="none" xmlns="http://www.w3.org/2000/svg">
<circle cx="25" cy="25" r="25" fill="white"/>
<path d="M28.5407 24.29L22.8807 18.64C22.7878 18.5463 22.6772 18.4719 22.5553 18.4211C22.4334 18.3704 22.3027 18.3442 22.1707 18.3442C22.0387 18.3442 21.908 18.3704 21.7861 18.4211C21.6643 18.4719 21.5537 18.5463 21.4607 18.64C21.2745 18.8274 21.1699 19.0809 21.1699 19.345C21.1699 19.6092 21.2745 19.8627 21.4607 20.05L26.4107 25.05L21.4607 30C21.2745 30.1874 21.1699 30.4409 21.1699 30.705C21.1699 30.9692 21.2745 31.2227 21.4607 31.41C21.5533 31.5045 21.6638 31.5797 21.7856 31.6312C21.9075 31.6827 22.0384 31.7095 22.1707 31.71C22.303 31.7095 22.4339 31.6827 22.5558 31.6312C22.6777 31.5797 22.7881 31.5045 22.8807 31.41L28.5407 25.76C28.6422 25.6664 28.7232 25.5527 28.7786 25.4262C28.834 25.2997 28.8626 25.1631 28.8626 25.025C28.8626 24.8869 28.834 24.7503 28.7786 24.6238C28.7232 24.4973 28.6422 24.3837 28.5407 24.29Z" fill="black"/>
</svg>
