<svg width="32" height="32" viewBox="0 0 32 32" fill="none" xmlns="http://www.w3.org/2000/svg">
<g opacity="0.8">
<path d="M10.8819 28.5127L11.2903 28.2242C11.275 28.2026 11.2609 28.1856 11.2513 28.1745L11.2509 28.1741C11.2151 28.1154 11.1867 28.0525 11.1664 27.9868C11.1663 27.9864 11.1662 27.9861 11.1661 27.9857L8.47279 19.0792L8.39906 18.8353L8.15844 18.7516L3.32553 17.0708C3.3255 17.0708 3.32547 17.0708 3.32544 17.0708C2.89951 16.9222 2.52884 16.6476 2.26261 16.2834C1.99636 15.9192 1.84716 15.4827 1.83482 15.0317C1.82248 14.5808 1.94757 14.1367 2.1935 13.7585C2.43916 13.3807 2.79378 13.0865 3.21038 12.9147C3.21085 12.9145 3.21131 12.9144 3.21178 12.9142L27.1033 3.26828L27.1036 3.26815C27.4775 3.11688 27.8855 3.06983 28.2841 3.13201C28.6827 3.1942 29.057 3.36329 29.3671 3.62129L29.3679 3.62194C29.6759 3.87713 29.9088 4.21127 30.0415 4.58859C30.1743 4.96592 30.2019 5.37223 30.1216 5.76407L30.1214 5.76473L25.7717 27.1174C25.7716 27.1179 25.7715 27.1184 25.7714 27.1189C25.6659 27.6209 25.3911 28.0715 24.9931 28.3952C24.5947 28.7191 24.0972 28.8963 23.5838 28.8971C23.0956 28.8965 22.6215 28.7334 22.2362 28.4335L22.2353 28.4328L16.8616 24.27L16.4956 23.9865L16.1848 24.3296L12.6046 28.2824L12.4426 28.4189C12.3936 28.4531 12.341 28.482 12.2857 28.5049L12.2857 28.5049L12.2821 28.5064C12.2613 28.5152 12.2438 28.5237 12.2316 28.5298L12.216 28.5378L12.2144 28.5386C12.1391 28.5623 12.0608 28.575 11.9818 28.5764L11.9813 28.5764C11.9625 28.5768 11.9453 28.5781 11.9302 28.5798C11.9001 28.5785 11.87 28.5756 11.8402 28.5712L11.8095 28.558L11.7568 28.5536C11.6776 28.5306 11.6022 28.4957 11.5333 28.45L11.5334 28.4499L11.5245 28.4443C11.5111 28.4358 11.4963 28.4251 11.4669 28.4027L11.4633 28.4C11.3962 28.3498 11.3372 28.2896 11.2883 28.2215L10.8819 28.5127ZM10.8819 28.5127C10.9606 28.6225 11.0557 28.7195 11.1638 28.8004L10.6882 28.1328C10.7248 28.2518 10.7779 28.365 10.846 28.4693C10.8516 28.4778 10.8583 28.4852 10.8651 28.4927C10.871 28.4991 10.8768 28.5055 10.8819 28.5127ZM11.2661 28.198L11.2646 28.1958C11.2651 28.1965 11.2656 28.1973 11.2661 28.198ZM12.847 20.0026L12.8478 20.0019L16.4468 16.4017L15.8622 15.6047L10.4419 18.4273L10.0743 18.6187L10.1942 19.0155L11.2396 22.4729L12.208 22.429L12.6207 20.4236L12.6209 20.4226C12.6533 20.2634 12.7319 20.1173 12.847 20.0026ZM23.257 27.1152L23.8901 27.6057L24.0528 26.8215L28.489 5.43349L28.678 4.52192L27.8137 4.86771L3.84233 14.4576L2.62994 14.9426L3.85622 15.3914L8.82203 17.2086L9.02915 17.2844L9.22477 17.1825L22.7785 10.1257L22.7789 10.1255C22.9554 10.0334 23.159 10.0075 23.3529 10.0526C23.5468 10.0977 23.7182 10.2108 23.8359 10.3713C23.9537 10.5319 24.01 10.7293 23.9948 10.9278C23.9795 11.1263 23.8937 11.3127 23.7528 11.4534L23.7526 11.4536L14.3086 20.8976L14.2026 21.0036L14.1724 21.1504L13.7646 23.1324L13.3957 24.9256L14.6249 23.5688L15.7784 22.2957C15.9196 22.1402 16.1142 22.0437 16.3234 22.0252C16.5325 22.0068 16.7409 22.0679 16.907 22.1962C16.9071 22.1962 16.9072 22.1963 16.9072 22.1963L23.257 27.1152Z" fill="black" stroke="white"/>
</g>
</svg>
