<svg width="226" height="195" viewBox="0 0 226 195" fill="none" xmlns="http://www.w3.org/2000/svg">
<rect width="434" height="58" transform="translate(-142.592 149.884) rotate(-40.4327)" fill="#10DE24"/>
<path d="M30.914 31.1608L32.1621 33.119L29.498 35.3889L36.9823 44.1728L34.7445 46.0796L27.2602 37.2957L24.4591 39.6824L22.9674 37.9317L30.914 31.1608ZM35.4717 26.8569C36.4359 26.0354 37.454 25.5446 38.5261 25.3843C39.5896 25.2139 40.6593 25.3797 41.7352 25.8818C42.8112 26.3839 43.8464 27.2186 44.8408 28.3857C45.818 29.5325 46.4734 30.682 46.8069 31.8342C47.1319 32.9762 47.1301 34.0637 46.8017 35.0968C46.4732 36.1299 45.8269 37.0572 44.8628 37.8787C43.8987 38.7002 42.8798 39.2005 41.8062 39.3795C40.734 39.5398 39.66 39.3689 38.5841 38.8668C37.4995 38.3545 36.4643 37.5199 35.4785 36.3629C34.51 35.2262 33.8632 34.0869 33.5383 32.9449C33.2149 31.7841 33.2174 30.6871 33.5458 29.654C33.8758 28.6022 34.5177 27.6698 35.4717 26.8569ZM36.8985 28.5315C36.1272 29.1887 35.8031 29.9904 35.9261 30.9366C36.0593 31.8741 36.6966 33.0127 37.8381 34.3524C38.9795 35.692 40.0076 36.4977 40.9222 36.7694C41.8369 37.0411 42.6748 36.8527 43.436 36.2041C44.2073 35.5469 44.5307 34.7546 44.4061 33.8272C44.273 32.8897 43.6313 31.746 42.4812 30.3962C41.3311 29.0464 40.3081 28.2364 39.4123 27.9662C38.5078 27.6859 37.6699 27.8743 36.8985 28.5315ZM49.965 14.9284L58.941 25.4629L56.7031 27.3697L49.2188 18.5858L45.7783 21.5173L53.2626 30.3012L51.0248 32.2079L42.0488 21.6733L49.965 14.9284Z" fill="white"/>
</svg>
